<svg width="42" height="44" viewBox="0 0 42 44" fill="none" xmlns="http://www.w3.org/2000/svg">
<path d="M7.20247 14.4089C5.63247 14.4089 4.12247 14.4389 2.61247 14.4089C1.39247 14.3789 0.402471 13.5689 0.102471 12.4689C-0.207529 11.3189 0.192469 10.0889 1.21247 9.50885C1.71247 9.22885 2.33247 9.04885 2.90247 9.03885C5.04247 8.98885 7.18247 8.98885 9.33247 9.02885C10.9825 9.05885 11.9325 9.92885 12.2125 11.5789C13.2225 17.6589 14.2325 23.7489 15.2525 29.8289C15.3025 30.0989 15.3825 30.3689 15.4525 30.6889C18.0125 30.6889 20.5325 30.6889 23.0425 30.6889C25.9425 30.6889 28.8425 30.6989 31.7325 30.6689C32.0225 30.6689 32.5325 30.4389 32.5725 30.2389C33.4225 26.2089 34.2125 22.1689 35.0425 18.0389C34.2425 18.0389 33.5225 18.0389 32.8025 18.0389C28.6725 18.0389 24.5525 18.0389 20.4225 18.0389C19.2725 18.0389 18.4025 17.5389 17.9025 16.5189C17.4425 15.5689 17.5225 14.6089 18.1425 13.7489C18.7225 12.9389 19.5625 12.6389 20.5225 12.6389C26.4125 12.6389 32.3025 12.6189 38.1925 12.6489C40.1925 12.6589 41.3225 14.0689 40.9425 16.0489C39.7925 21.9489 38.6125 27.8389 37.4125 33.7189C37.0925 35.3089 36.1825 36.0689 34.5725 36.0689C27.4825 36.0889 20.4025 36.0889 13.3125 36.0689C11.4925 36.0689 10.6425 35.1689 10.3225 33.2089C9.30247 26.9989 8.26247 20.7989 7.21247 14.4389L7.20247 14.4089Z" fill="#60B8BC"/>
<path d="M14.9125 37.8688C15.5125 37.8688 16.1125 37.8488 16.7025 37.8688C18.1825 37.9288 19.3025 38.9888 19.3925 40.3788C19.4825 41.8688 18.5025 43.0988 16.9725 43.2188C15.6025 43.3188 14.2025 43.3188 12.8325 43.2188C11.3525 43.1088 10.3625 41.8888 10.4125 40.4688C10.4725 39.0488 11.5525 37.9488 13.0225 37.8788C13.6525 37.8488 14.2825 37.8788 14.9125 37.8788V37.8688Z" fill="#60B8BC"/>
<path d="M32.9826 37.8688C33.6126 37.8688 34.2426 37.8388 34.8726 37.8688C36.3026 37.9588 37.3526 39.0188 37.4326 40.4088C37.5126 41.8488 36.5526 43.0788 35.0726 43.1988C33.6726 43.3088 32.2426 43.3088 30.8326 43.1988C29.3526 43.0888 28.4026 41.8688 28.4626 40.4188C28.5226 39.0188 29.6226 37.9288 31.1026 37.8588C31.7326 37.8288 32.3626 37.8588 32.9926 37.8588L32.9826 37.8688Z" fill="#60B8BC"/>
<circle cx="24.5078" cy="3.5" r="3.5" fill="url(#paint0_linear_3424_576)"/>
<defs>
<linearGradient id="paint0_linear_3424_576" x1="22.276" y1="-4.6059" x2="30.5742" y2="-2.32111" gradientUnits="userSpaceOnUse">
<stop stop-color="#E41225"/>
<stop offset="1" stop-color="#FF6F4A"/>
</linearGradient>
</defs>
</svg>
